# AST/ASF file generated using VICON BodyLanguage
# -----------------------------------------------
:version 1.10
:name VICON
:units
  mass 1.0
  length 0.45
  angle deg
:documentation
   .ast/.asf automatically generated from VICON data using
   VICON BodyBuilder and BodyLanguage model FoxedUp or BRILLIANT.MOD
:root
   order TX TY TZ RX RY RZ
   axis XYZ
   position 0 0 0  
   orientation 0 0 0 
:bonedata
  begin
     id 1 
     name lhipjoint
     direction 0.693937 -0.600361 0.397515 
     length 2.37164 
     axis 0 0 0  XYZ
  end
  begin
     id 2 
     name lfemur
     direction 0.34202 -0.939693 0  
     length 6.18497  
     axis 0 0 20  XYZ
    dof rx ry rz
    limits (-160.0 20.0)
           (-70.0 70.0)
           (-60.0 70.0)
  end
  begin
     id 3 
     name ltibia
     direction 0.34202 -0.939693 0   
     length 6.91601   
     axis 0 0 20   XYZ
    dof rx
    limits (-10.0 170.0)
  end
  begin
     id 4 
     name lfoot
     direction 0.0978718 -0.2689 0.958182   
     length 1.81453   
     axis -90 7.62852e-016 20   XYZ
    dof rx rz
    limits (-45.0 90.0)
           (-70.0 20.0)
  end
  begin
     id 5 
     name ltoes
     direction 1.53569e-011 -4.21951e-011 1   
     length 0.912052   
     axis -90 7.62852e-016 20   XYZ
    dof rx
    limits (-90.0 20.0)
  end
  begin
     id 6 
     name rhipjoint
     direction -0.643996 -0.637876 0.422354   
     length 2.23216  
     axis 0 0 0  XYZ 
  end
  begin
     id 7 
     name rfemur
     direction -0.34202 -0.939693 0   
     length 6.15404   
     axis 0 0 -20   XYZ
    dof rx ry rz
    limits (-160.0 20.0)
           (-70.0 70.0)
           (-70.0 60.0)
  end
  begin
     id 8 
     name rtibia
     direction -0.34202 -0.939693 0   
     length 6.86744   
     axis 0 0 -20   XYZ
    dof rx
    limits (-10.0 170.0)
 end
 begin
     id 9 
     name rfoot
     direction -0.118701 -0.326127 0.937844   
     length 1.9243  
     axis -90 -7.62852e-016 -20   XYZ
    dof rx rz
    limits (-45.0 90.0)
           (-20.0 70.0)
  end
  begin
     id 10 
     name rtoes
     direction -1.5356e-011 -4.2181e-011 1   
     length 0.958865   
     axis -90 -7.62852e-016 -20   XYZ
    dof rx
    limits (-90.0 20.0)
  end
  begin
     id 11 
     name lowerback
     direction 0.0310826 0.968686 -0.246334   
     length 2.00021   
     axis 0 0 0   XYZ
    dof rx ry rz
    limits (-20.0 45.0)
           (-30.0 30.0)
           (-30.0 30.0)
  end
  begin
     id 12 
     name upperback
     direction -0.0152834 0.999474 -0.0286152   
     length 2.03728   
     axis 0 0 0   XYZ
    dof rx ry rz
    limits (-20.0 45.0)
           (-30.0 30.0)
           (-30.0 30.0)
  end
  begin
     id 13 
     name thorax
     direction -0.0323701 0.996236 0.0804149   
     length 2.16   
     axis 0 0 0   XYZ
    dof rx ry rz
    limits (-20.0 45.0)
           (-30.0 30.0)
           (-30.0 30.0)
  end
  begin
     id 14 
     name lowerneck
     direction 0.0307935 0.982251 0.185027   
     length 1.43558   
     axis 0 0 0   XYZ
    dof rx ry rz
    limits (-20.0 45.0)
           (-30.0 30.0)
           (-30.0 30.0)
  end
  begin
     id 15 
     name upperneck
     direction -0.0927153 0.994775 0.0427454   
     length 1.44603   
     axis 0 0 0   XYZ
    dof rx ry rz
    limits (-20.0 45.0)
           (-30.0 30.0)
           (-30.0 30.0)
  end
  begin
     id 16
     name head
     direction -0.0341265 0.999406 -0.00472033  
     length 1.45931  
     axis 0 0 0   XYZ
    dof rx ry rz
    limits (-20.0 45.0)
           (-30.0 30.0)
           (-30.0 30.0)
  end
  begin
     id 17 
     name lclavicle
     direction 0.820755 0.555306 -0.134151  
     length 2.66075  
     axis 0 0 0   XYZ
    dof ry rz
    limits (-20.0 10.0)
           (0.0 20.0)
  end
  begin
     id 18 
     name lhumerus
     direction 1 -4.48971e-011 5.24853e-027   
     length 5.0546   
     axis -180 -30 -90   XYZ
    dof rx ry rz
    limits (-60.0 90.0)
           (-90.0 90.0)
           (-90.0 90.0)
  end
  begin
     id 19
     name lradius
     direction 1 -4.48971e-011 2.76575e-028   
     length 3.39013   
     axis -180 -30 -90   XYZ
    dof rx
    limits (-10.0 170.0)
  end
  begin
     id 20
     name lwrist
     direction 1 -4.48939e-011 -2.27826e-027   
     length 1.69507   
     axis 2.17013e-015 90 90   XYZ
    dof ry
    limits (-180.0 0.0)
 end
  begin
     id 21 
     name lhand
     direction 1 -4.49009e-011 -4.55652e-027   
     length 0.572425   
     axis 2.90745e-015 90 90   XYZ
    dof rx rz
    limits (-90.0 90.0)
           (-45.0 45.0)
  end
  begin
     id 22 
     name lfingers
     direction 1 -4.48955e-011 -9.11303e-027   
     length 0.461504   
     axis 5.81489e-015 90 90   XYZ
    dof rx
    limits (0.0 90.0)
  end
  begin
     id 23
     name lthumb
     direction 0.707107 -6.34929e-011 0.707107   
     length 0.66263   
     axis -90 45 2.85299e-015   XYZ
    dof rx rz
    limits (-45.0 45.0)
           (-45.0 45.0)
  end
  begin
     id 24 
     name rclavicle
     direction -0.754477 0.632921 -0.173712   
     length 2.73081  
     axis 0 0 0   XYZ 
    dof ry rz
    limits (-10.0 20.0)
           (-20.0 0.0)
  end
  begin
     id 25 
     name rhumerus
     direction -1 -4.48969e-011 5.1496e-027  
     length 5.0701   
     axis -180 30 90   XYZ
    dof rx ry rz
    limits (-90.0 60.0)
           (-90.0 90.0)
           (-90.0 90.0)
  end
  begin
     id 26 
     name rradius
     direction -1 -4.48967e-011 -7.15624e-028   
     length 3.14957   
     axis -180 30 90   XYZ
    dof rx
    limits (-10.0 170.0)
  end
  begin
     id 27 
     name rwrist
     direction -1 -4.48938e-011 -2.27826e-027   
     length 1.57479   
     axis 2.17013e-015 -90 -90   XYZ
    dof ry
    limits (-180.0 0.0)
  end
  begin
     id 28
     name rhand
     direction -1 -4.49008e-011 -4.55652e-027   
     length 0.718191   
     axis 2.90745e-015 -90 -90   XYZ
    dof rx rz
    limits (-90.0 90.0)
           (-45.0 45.0)
  end
  begin
     id 29
     name rfingers
     direction -1 -4.48953e-011 -9.11303e-027   
     length 0.579024   
     axis 5.81489e-015 -90 -90   XYZ
    dof rx
    limits (0.0 90.0)
  end
  begin
     id 30
     name rthumb
     direction -0.707107 -6.34937e-011 0.707107   
     length 0.831366   
     axis -90 -45 -2.85299e-015   XYZ
    dof rx rz
    limits (-45.0 45.0)
           (-45.0 45.0)
  end
:hierarchy
  begin
    root lhipjoint rhipjoint lowerback
    lhipjoint lfemur
    lfemur ltibia
    ltibia lfoot
    lfoot ltoes
    rhipjoint rfemur
    rfemur rtibia
    rtibia rfoot
    rfoot rtoes
    lowerback upperback
    upperback thorax
    thorax lowerneck lclavicle rclavicle
    lowerneck upperneck
    upperneck head
    lclavicle lhumerus
    lhumerus lradius
    lradius lwrist
    lwrist lhand lthumb
    lhand lfingers
    rclavicle rhumerus
    rhumerus rradius
    rradius rwrist
    rwrist rhand rthumb
    rhand rfingers
  end

#!OML:ASF H:\Male1\Project 1\Capture day 1\Session 1\Male1.ASF
:FULLY-SPECIFIED
:DEGREES
136
root -22.4268 15.1855 -0.345625 -103.165 -89.2724 97.4276
lowerback 5.0997 0.876539 0.371085
upperback 4.8088 1.06279 -0.506557
thorax 2.10512 0.498288 -0.763573
lowerneck -10.2517 0.71005 2.56019
upperneck 11.1746 0.420292 0.774289
head 5.04793 0.350409 -0.146808
rclavicle -1.14612e-015 2.93207e-015
rhumerus -31.7761 -1.76068 -88.9777
rradius 29.6657
rwrist -15.3387
rhand -16.2299 -0.682748
rfingers 7.12502
rthumb 9.97837 -30.4262
lclavicle -1.14612e-015 2.93207e-015
lhumerus -28.4338 -0.992835 87.556
lradius 29.5927
lwrist -2.70195
lhand -18.6633 14.518
lfingers 7.12502
lthumb 7.63014 44.3603
rfemur 0.23401 11.4731 25.7662
rtibia 24.3769
rfoot -30.7854 -23.5129
rtoes -14.5991
lfemur -15.8504 -13.1667 -19.9315
ltibia 30.3804
lfoot -15.5755 17.9459
ltoes -3.5342
137
root -22.3922 15.1805 -0.350548 -78.4827 -89.3902 72.608
lowerback 5.14782 0.844711 0.664981
upperback 4.73949 1.03282 -0.496823
thorax 2.01169 0.492094 -0.918438
lowerneck -10.2021 0.5803 2.45175
upperneck 11.2848 0.252727 0.833444
head 5.07205 0.268084 -0.12313
rclavicle -1.41075e-014 8.64713e-015
rhumerus -31.9972 -1.74853 -88.9522
rradius 29.5767
rwrist -15.1655
rhand -16.2152 -0.953682
rfingers 7.12502
rthumb 9.99255 -30.6965
lclavicle -1.41075e-014 8.64713e-015
lhumerus -28.7506 -0.589463 87.3628
lradius 29.2657
lwrist -3.14235
lhand -18.5854 14.509
lfingers 7.12502
lthumb 7.70533 44.3486
rfemur 0.404766 11.5784 26.0739
rtibia 24.2632
rfoot -30.9203 -23.8946
rtoes -15.0045
lfemur -15.7649 -13.2071 -19.8771
ltibia 30.8869
lfoot -15.6206 17.4777
ltoes -4.5163
138
root -22.3628 15.1748 -0.354454 -50.4228 -89.4084 44.4271
lowerback 5.16488 0.798725 0.940486
upperback 4.63948 0.984799 -0.45336
thorax 1.90215 0.475772 -1.02749
lowerneck -10.1934 0.48283 2.27219
upperneck 11.4857 0.126787 0.961164
head 5.13165 0.208338 -0.0633699
rclavicle 3.1526e-015 -1.63997e-015
rhumerus -32.2299 -1.47049 -88.9699
rradius 29.4396
rwrist -15.304
rhand -16.2983 -1.19013
rfingers 7.12502
rthumb 9.91234 -30.9368
lclavicle 3.1526e-015 -1.63997e-015
lhumerus -29.1185 -0.0287846 87.1368
lradius 28.9227
lwrist -3.52484
lhand -18.7031 14.4844
lfingers 7.12502
lthumb 7.59177 44.3282
rfemur 0.575801 11.6002 26.4043
rtibia 24.0748
rfoot -30.7521 -24.4227
rtoes -14.895
lfemur -15.6499 -13.0784 -19.825
ltibia 31.5495
lfoot -16.0958 17.0247
ltoes -4.72945
139
root -22.334 15.1704 -0.361035 -24.6027 -89.3558 18.5489
lowerback 5.15202 0.760581 1.20968
upperback 4.53138 0.947443 -0.398918
thorax 1.80065 0.464147 -1.1217
lowerneck -10.5696 0.414136 2.35484
upperneck 11.9501 0.0227623 0.793535
head 5.33894 0.154824 -0.136124
rclavicle -1.92542e-014 8.27441e-015
rhumerus -32.4012 -1.38746 -88.935
rradius 29.301
rwrist -15.3005
rhand -16.314 -1.58926
rfingers 7.12502
rthumb 9.89719 -31.3366
lclavicle -1.92542e-014 8.27441e-015
lhumerus -29.3978 0.607156 86.856
lradius 28.4916
lwrist -3.85919
lhand -18.8288 14.2267
lfingers 7.12502
lthumb 7.47044 44.0748
rfemur 0.571967 11.8586 26.8134
rtibia 23.967
rfoot -30.0272 -25.1681
rtoes -14.1777
lfemur -15.5818 -12.6907 -19.7115
ltibia 32.3017
lfoot -16.7434 16.5639
ltoes -5.16807
140
root -22.3057 15.1607 -0.365458 2.02841 -89.0671 -8.10958
lowerback 5.07018 0.652689 1.62922
upperback 4.4715 0.820065 -0.364481
thorax 1.78735 0.411556 -1.31651
lowerneck -11.0174 0.337659 2.56862
upperneck 12.3237 -0.107567 0.588371
head 5.53027 0.0913128 -0.244971
rclavicle -6.25551e-015 -6.95746e-016
rhumerus -32.4513 -1.5247 -88.9126
rradius 29.1744
rwrist -15.0761
rhand -16.289 -1.83793
rfingers 7.12502
rthumb 9.9213 -31.5841
lclavicle -6.25551e-015 -6.95746e-016
lhumerus -29.6016 1.30961 86.4555
lradius 28.0286
lwrist -4.20302
lhand -18.7879 14.2756
lfingers 7.12502
lthumb 7.50983 44.1223
rfemur 0.402374 12.0664 27.3131
rtibia 24.0055
rfoot -28.6848 -26.038
rtoes -12.6609
lfemur -15.5077 -12.2745 -19.5148
ltibia 33.1203
lfoot -17.4378 16.0842
ltoes -5.89755
